<svg width="512" height="512" viewBox="0 0 512 512" fill="none" xmlns="http://www.w3.org/2000/svg">
<rect x="71" y="200" width="320" height="160" rx="32" fill="#212121"/>
<rect x="87" y="184" width="320" height="160" rx="32" fill="#282828"/>
<rect x="87" y="184" width="320" height="160" rx="32" fill="#282828"/>
<rect x="103" y="168" width="320" height="160" rx="32" fill="#494949"/>
<rect x="120" y="152" width="320" height="160" rx="32" fill="#6B6B6B"/>
<path d="M218.818 278.091H207L241.182 185H252.818L287 278.091H275.182L247.364 199.727H246.636L218.818 278.091ZM223.182 241.727H270.818V251.727H223.182V241.727Z" fill="white"/>
<path d="M320.591 279.727C316.167 279.727 312.152 278.894 308.545 277.227C304.939 275.53 302.076 273.091 299.955 269.909C297.833 266.697 296.773 262.818 296.773 258.273C296.773 254.273 297.561 251.03 299.136 248.545C300.712 246.03 302.818 244.061 305.455 242.636C308.091 241.212 311 240.152 314.182 239.455C317.394 238.727 320.621 238.152 323.864 237.727C328.106 237.182 331.545 236.773 334.182 236.5C336.848 236.197 338.788 235.697 340 235C341.242 234.303 341.864 233.091 341.864 231.364V231C341.864 226.515 340.636 223.03 338.182 220.545C335.758 218.061 332.076 216.818 327.136 216.818C322.015 216.818 318 217.939 315.091 220.182C312.182 222.424 310.136 224.818 308.955 227.364L298.773 223.727C300.591 219.485 303.015 216.182 306.045 213.818C309.106 211.424 312.439 209.758 316.045 208.818C319.682 207.848 323.258 207.364 326.773 207.364C329.015 207.364 331.591 207.636 334.5 208.182C337.439 208.697 340.273 209.773 343 211.409C345.758 213.045 348.045 215.515 349.864 218.818C351.682 222.121 352.591 226.545 352.591 232.091V278.091H341.864V268.636H341.318C340.591 270.152 339.379 271.773 337.682 273.5C335.985 275.227 333.727 276.697 330.909 277.909C328.091 279.121 324.652 279.727 320.591 279.727ZM322.227 270.091C326.47 270.091 330.045 269.258 332.955 267.591C335.894 265.924 338.106 263.773 339.591 261.136C341.106 258.5 341.864 255.727 341.864 252.818V243C341.409 243.545 340.409 244.045 338.864 244.5C337.348 244.924 335.591 245.303 333.591 245.636C331.621 245.939 329.697 246.212 327.818 246.455C325.97 246.667 324.47 246.848 323.318 247C320.53 247.364 317.924 247.955 315.5 248.773C313.106 249.561 311.167 250.758 309.682 252.364C308.227 253.939 307.5 256.091 307.5 258.818C307.5 262.545 308.879 265.364 311.636 267.273C314.424 269.152 317.955 270.091 322.227 270.091Z" fill="white"/>
</svg>
