<svg width="512" height="512" viewBox="0 0 512 512" fill="none" xmlns="http://www.w3.org/2000/svg">
<path d="M360.081 421.907C279.515 421.907 266.945 423.659 247 415.5C227.055 407.038 257.549 393.954 242.741 378.844C228.235 363.734 216.903 345.905 208.744 325.355C200.584 304.503 196.505 281.838 196.505 257.36C196.505 232.882 200.433 210.52 208.29 190.272C216.45 170.025 227.782 152.497 242.288 137.69C257.095 122.58 274.472 111.096 294.417 103.239C314.362 95.0797 336.272 91 360.145 91C387.041 91 411.217 96.2885 432.673 106.865C454.431 117.14 472.11 131.797 485.709 150.835C499.61 169.572 508.071 191.632 511.093 217.017H477.096H443.099C439.17 193.748 429.651 176.22 414.541 164.434C399.431 152.346 381.45 146.302 360.599 146.302C342.164 146.302 325.846 150.684 311.642 159.448C297.741 168.212 286.862 180.904 279.005 197.525C271.148 213.844 267.219 233.638 267.219 256.907C267.219 280.479 271.148 300.877 279.005 318.102C287.164 335.025 298.346 348.171 312.549 357.539C326.752 366.605 343.071 371.138 361.505 371.138C381.148 371.138 398.524 365.245 413.634 353.46C428.744 341.674 438.566 324.146 443.099 300.877H512C508.071 326.262 499.157 348.473 485.255 367.512C471.354 386.248 453.676 400.754 432.22 411.028C410.763 421.303 386.675 421.907 360.081 421.907Z" fill="white"/>
<path fill-rule="evenodd" clip-rule="evenodd" d="M116.951 95.533L0 421.907H69.3546L93.0791 349.833H215.717L239.341 421.907H311.869L194.918 95.533H176.786L154.528 163.154L132.363 95.533H116.951ZM154.528 163.154L197.887 295.437H110.984L154.528 163.154Z" fill="white"/>
<path d="M176.786 95.533H132.363L154.528 163.154L176.786 95.533Z" fill="white"/>
</svg>
