<svg width="512" height="512" viewBox="0 0 512 512" fill="none" xmlns="http://www.w3.org/2000/svg">
<circle cx="256" cy="256" r="256" fill="#5B5B5B"/>
<path d="M162.875 222.312H140.469V279.031C140.469 283.219 140.656 286.375 141.031 288.5C141.469 290.625 142.062 292.25 142.812 293.375C143.625 294.438 144.656 295.312 145.906 296C147.219 296.625 149.281 297.25 152.094 297.875V302.469H113.75V297.875C116.5 297.125 118.469 296.406 119.656 295.719C120.844 295.031 121.75 294.156 122.375 293.094C123.062 292.031 123.562 290.5 123.875 288.5C124.188 286.5 124.344 283.344 124.344 279.031V222.312H113V217.531C115.375 217.156 116.938 216.875 117.688 216.688C118.5 216.438 119.25 216.094 119.938 215.656C120.688 215.219 121.312 214.594 121.812 213.781C122.375 212.969 122.844 211.781 123.219 210.219C123.656 208.594 124 206.344 124.25 203.469C124.812 196.656 126.031 191.125 127.906 186.875C129.844 182.625 132.625 179 136.25 176C139.938 173 143.844 170.906 147.969 169.719C152.156 168.469 157.062 167.844 162.688 167.844C167.625 167.844 171.812 168.188 175.25 168.875V185.844H165.969C164.781 182.156 163.375 179.562 161.75 178.062C160.188 176.5 157.969 175.719 155.094 175.719C153.031 175.719 151.281 176 149.844 176.562C148.469 177.125 147.188 178 146 179.188C144.812 180.375 143.781 181.969 142.906 183.969C142.094 185.969 141.469 188.469 141.031 191.469C140.656 194.406 140.469 198.25 140.469 203V212.844H162.875V222.312Z" fill="white"/>
<path d="M196.812 255.031C196.812 276.906 200.312 294.938 207.312 309.125C214.375 323.312 225.125 332.812 239.562 337.625L237.312 344.844C219 340.031 204.969 329.656 195.219 313.719C185.469 297.844 180.594 278.594 180.594 255.969C180.594 233.406 185.469 214.156 195.219 198.219C205.031 182.219 219.062 171.812 237.312 167L239.844 174.219C225.219 179.031 214.375 188.438 207.312 202.438C200.312 216.375 196.812 233.906 196.812 255.031Z" fill="white"/>
<path d="M292.156 248.375L304.344 232.906C305.656 231.219 306.719 229.594 307.531 228.031C308.344 226.406 308.75 224.75 308.75 223.062C308.75 221.625 308.219 220.438 307.156 219.5C306.094 218.562 304.438 217.875 302.188 217.438V212.844H332.844V217.438C330.469 218.125 328.031 219.469 325.531 221.469C323.094 223.469 320.094 226.688 316.531 231.125L297.125 254.938L318.5 283.719C321.562 287.844 324.312 291 326.75 293.188C329.188 295.375 331.625 296.938 334.062 297.875V302.469H296.375V297.875C301.562 297.25 304.156 295.312 304.156 292.062C304.156 290.75 303.938 289.5 303.5 288.312C303.062 287.125 302.25 285.75 301.062 284.188L287.469 265.25L273.031 284C271.969 285.375 271.125 286.656 270.5 287.844C269.938 288.969 269.656 290.25 269.656 291.688C269.656 293.375 270.219 294.781 271.344 295.906C272.531 296.969 274.375 297.625 276.875 297.875V302.469H245.562V297.875C247.625 297.125 249.469 296.188 251.094 295.062C252.781 293.938 254.469 292.5 256.156 290.75C257.906 288.938 260.188 286.312 263 282.875L282.5 258.688L262.531 231.312C259.781 227.562 257.594 224.844 255.969 223.156C254.344 221.469 252.844 220.188 251.469 219.312C250.094 218.438 248.719 217.812 247.344 217.438V212.844H284.094V217.438C279.156 218.188 276.688 220.125 276.688 223.25C276.688 224.688 277 226.125 277.625 227.562C278.312 229 279.344 230.594 280.719 232.344L292.156 248.375Z" fill="white"/>
<path d="M382.812 255.031C382.812 233.906 379.312 216.375 372.312 202.438C365.312 188.438 354.469 179.031 339.781 174.219L342.312 167C360.562 171.812 374.562 182.219 384.312 198.219C394.125 214.156 399.031 233.406 399.031 255.969C399.031 278.594 394.156 297.844 384.406 313.719C374.656 329.656 360.625 340.031 342.312 344.844L340.062 337.625C354.5 332.812 365.219 323.312 372.219 309.125C379.281 294.938 382.812 276.906 382.812 255.031Z" fill="white"/>
</svg>
